<svg width="480" height="480" xmlns="http://www.w3.org/2000/svg"><g fill="#000" fill-rule="evenodd"><path d="M389.585 192.208c25.312 64.593 11.872 140.863-40.32 193.056-52.194 52.193-128.464 65.633-193.057 40.321l48.8-48.8c36.09 5.13 74.069-6.187 101.83-33.947 27.76-27.761 39.076-65.74 33.947-101.83l48.8-48.8zM370.477 67.066l42.427 42.426L73.492 448.904l-42.426-42.427z"/><g><path d="M90.385 287.762c-25.312-64.594-11.872-140.864 40.32-193.056 52.193-52.193 128.463-65.633 193.057-40.321l-48.8 48.8c-36.09-5.13-74.07 6.186-101.83 33.947-27.76 27.76-39.076 65.74-33.947 101.83l-48.8 48.8zM406.477 31.066l42.427 42.426-339.412 339.412-42.426-42.427z"/></g></g></svg>